# xmcd
#
# Track frame offsets: 
#        150
#        10481
#        20834
#        31295
#        43897
#        54479
#        65953
#        75042
#        84913
#        97964
#        109391
#        120185
#        131094
#        140936
#        150678
#        159550
#        170081
#        181596
#        192974
#        205043
#        216011
#        226997
#        236925
#        249280
#        256432
#        263985
#
# Disc length: 3608 seconds
#
# Revision: 0
# Processed by: cddbd v1.5.2PL0 Copyright (c) Steve Scherf et al.
# Submitted via: ExactAudioCopy v0.95b3
#
DISCID=6b0e161a
DTITLE=Roy Orbison  - Orbison 1955 - 1965 Disc 2
DYEAR=1900
DGENRE=
TTITLE0=Ooby Dooby (alt)
TTITLE1=Ooby Dooby (alt 2)
TTITLE2=Ooby Dooby (alt 3)
TTITLE3=Trying To Get To You (alt)
TTITLE4=Chicken Hearted (semi spoken vocal)
TTITLE5=Problem Child (alt)
TTITLE6=The Clown (alt)
TTITLE7=This Kind Of Love
TTITLE8=It's Too Late (alt)
TTITLE9=I Was A Fool (Ken Cook and Roy Orbison)
TTITLE10=Seems To Me
TTITLE11=Sweet and Innocent
TTITLE12=I'll Never Tell
TTITLE13=Almost Eighteen
TTITLE14=Jolle
TTITLE15=Paper Boy
TTITLE16=With The Bug
TTITLE17=Ooby Dooby (The Wink Westerners)
TTITLE18=Hey! Miss Fannie (The Wink Westerners)
TTITLE19=A True Love Goodbye (The Teen Kings)
TTITLE20=An Empty Cup ( The Teen Kings)
TTITLE21=Cat Called Domino (The Teen Kings)
TTITLE22=I Guess I'm Lonely (Joe Melson)
TTITLE23=You Fool You (&Joe Melson)
TTITLE24=Velveteen Doll (& Joe Melson)
TTITLE25=She's OK (&Joe Melson)
EXTD=
EXTT0=
EXTT1=
EXTT2=
EXTT3=
EXTT4=
EXTT5=
EXTT6=
EXTT7=
EXTT8=
EXTT9=
EXTT10=
EXTT11=
EXTT12=
EXTT13=
EXTT14=
EXTT15=
EXTT16=
EXTT17=
EXTT18=
EXTT19=
EXTT20=
EXTT21=
EXTT22=
EXTT23=
EXTT24=
EXTT25=
PLAYORDER=
